<svg width="46" height="55" viewBox="0 0 46 55" fill="none" xmlns="http://www.w3.org/2000/svg">
<path d="M23 0C10.3026 0 0 7.91975 0 17.6786C0 33.3929 23 55 23 55C23 55 46 33.3929 46 17.6786C46 7.91975 35.6974 0 23 0ZM23 27.5C21.1804 27.5 19.4017 27.0392 17.8888 26.1758C16.3758 25.3125 15.1966 24.0854 14.5003 22.6497C13.804 21.214 13.6218 19.6341 13.9768 18.11C14.3318 16.5859 15.208 15.1859 16.4946 14.087C17.7813 12.9882 19.4205 12.2399 21.2052 11.9367C22.9898 11.6335 24.8396 11.7891 26.5207 12.3838C28.2018 12.9785 29.6386 13.9856 30.6495 15.2777C31.6604 16.5698 32.2 18.0889 32.2 19.6429C32.1973 21.726 31.2272 23.7232 29.5024 25.1962C27.7777 26.6692 25.4392 27.4977 23 27.5Z" fill="#510014"/>
</svg>
