<svg width="40" height="62" viewBox="0 0 40 62" fill="none" xmlns="http://www.w3.org/2000/svg">
<path d="M36.3636 0H3.63636C1.63636 0 0 1.74375 0 3.875V58.125C0 60.2563 1.63636 62 3.63636 62H36.3636C38.3636 62 40 60.2563 40 58.125V3.875C40 1.74375 38.3636 0 36.3636 0ZM20 59.2022C19.6202 59.2168 19.2415 59.1496 18.8866 59.0047C18.5317 58.8598 18.2078 58.6403 17.9343 58.3591C17.6608 58.0779 17.4432 57.7408 17.2947 57.368C17.1461 56.9953 17.0695 56.5944 17.0695 56.1894C17.0695 55.7844 17.1461 55.3836 17.2947 55.0108C17.4432 54.6381 17.6608 54.301 17.9343 54.0198C18.2078 53.7386 18.5317 53.519 18.8866 53.3742C19.2415 53.2293 19.6202 53.1621 20 53.1766C20.7323 53.2046 21.4258 53.5343 21.9346 54.0962C22.4434 54.6582 22.7277 55.4086 22.7277 56.1894C22.7277 56.9703 22.4434 57.7207 21.9346 58.2826C21.4258 58.8446 20.7323 59.1743 20 59.2022ZM36.3636 50.375H3.63636V7.75H36.3636V50.375Z" fill="#510014"/>
</svg>
